<?xml version="1.0" standalone="no"?>
<!DOCTYPE svg PUBLIC "-//W3C//DTD SVG 20010904//EN"
 "http://www.w3.org/TR/2001/REC-SVG-20010904/DTD/svg10.dtd">
<svg version="1.0" xmlns="http://www.w3.org/2000/svg"
 width="241.000000pt" height="241.000000pt" viewBox="0 0 241.000000 241.000000"
 preserveAspectRatio="xMidYMid meet">
<metadata>
Created by potrace 1.14, written by Peter Selinger 2001-2017
</metadata>
<g transform="translate(0.000000,241.000000) scale(0.100000,-0.100000)"
fill="#000000" stroke="none">
<path d="M17 1772 c-16 -3 -17 -48 -17 -565 l0 -562 158 0 157 0 2 335 c1 184
2 342 3 350 1 16 22 -53 126 -430 37 -135 71 -247 75 -250 15 -10 218 -5 227
5 5 6 51 164 103 353 l94 343 5 -353 5 -353 148 0 c81 0 151 2 155 5 4 3 8
256 7 563 0 488 -2 557 -15 558 -88 5 -421 2 -440 -4 -24 -7 -29 -23 -100
-328 -49 -212 -77 -315 -82 -303 -7 18 -124 516 -134 571 -7 39 -23 63 -42 64
-59 3 -421 3 -435 1z"/>
<path d="M1459 1358 c-3 -7 -5 -694 -2 -703 2 -7 37 -11 86 -10 l82 0 2 358 2
357 -84 0 c-47 0 -86 -1 -86 -2z"/>
<path d="M1740 1001 l0 -357 83 1 82 0 5 239 5 239 136 -239 136 -239 106 0
c67 -1 107 3 108 10 1 13 1 676 0 692 -1 9 -26 12 -86 12 l-85 0 0 -242 0
-241 -91 160 c-50 87 -111 196 -137 241 l-46 82 -108 0 -108 -1 0 -357z"/>
</g>
</svg>
