<svg width="107" height="43" viewBox="0 0 107 43" fill="none" xmlns="http://www.w3.org/2000/svg">
<mask id="mask0_91_6145" style="mask-type:luminance" maskUnits="userSpaceOnUse" x="0" y="0" width="107" height="43">
<path d="M106.866 0H0V43H106.866V0Z" fill="white"/>
</mask>
<g mask="url(#mask0_91_6145)">
<path d="M54.7144 29.5124C54.9671 33.0067 56.6796 35.4876 59.7977 35.4876C61.2194 35.4876 62.7554 34.9371 63.6477 33.7843C63.8923 33.4697 64.2473 33.2944 64.6202 33.2944H73.0843C73.1765 33.2944 73.2427 33.3977 73.2106 33.4966C71.1452 39.9843 65.7131 43.0045 59.8398 43.0045C51.4981 43.0045 45.2057 37.2022 45.2057 26.973C45.2057 18.0404 50.7421 10.7708 58.9876 10.7708C69.3505 10.7708 73.8222 17.573 73.8222 29.5168H54.7124L54.7144 29.5124ZM64.3776 23.4472C64.3776 20.5753 62.5488 18.2472 59.9581 18.2472C56.9463 18.2472 55.2218 20.1011 54.7586 23.4472H64.3776Z" fill="#013841"/>
<path d="M76.9925 42.2315H85.9558C86.1042 42.2315 86.2245 42.0966 86.2245 41.9303V0.301124C86.2245 0.134831 86.1042 0 85.9558 0H76.9925C76.8441 0 76.7238 0.134831 76.7238 0.301124V41.9303C76.7238 42.0966 76.8441 42.2315 76.9925 42.2315Z" fill="#013841"/>
<path d="M0 42.2315H10.3289C10.4071 42.2315 10.4713 42.164 10.4713 42.0809V15.1393H10.5715L17.1426 41.773C17.2048 42.0427 17.4354 42.2292 17.6981 42.2292H24.5258C24.7885 42.2292 25.0171 42.0404 25.0813 41.773L31.6484 15.1393H31.7527V42.0809C31.7527 42.164 31.8168 42.2315 31.895 42.2315H42.0795C42.1577 42.2315 42.2219 42.164 42.2219 42.0809V0.150562C42.2219 0.0674157 42.1577 0 42.0795 0H27.2991C26.7637 0 26.2985 0.391011 26.1822 0.941573L21.1591 24.8404H21.0548L16.0357 0.941573C15.9194 0.391011 15.4562 0 14.9188 0H0.142371C0.064167 0 0 0.0674157 0 0.150562V42.2315Z" fill="#013841"/>
<path d="M92.567 0H90.9588V7.52809H92.567V0Z" fill="#013841"/>
<path d="M97.8848 7.52809L95.264 2.37079V7.52809H93.6558V0H95.6691L98.2899 5.15955V0H99.8981V7.52809H97.8848Z" fill="#013841"/>
<path d="M94.0549 16.2022L92.569 10.2045V16.2022H90.9588V8.67413H93.5897L94.8349 13.8786L96.0481 8.67413H98.6488V16.2022H97.0406V10.1932L95.5628 16.2022H94.0549Z" fill="#013841"/>
<path d="M102.904 16.3393C100.81 16.3393 99.3727 14.8315 99.3727 12.4157C99.3727 9.99999 100.81 8.54831 102.904 8.54831C104.997 8.54831 106.445 9.98876 106.445 12.4157C106.445 14.8427 104.997 16.3393 102.904 16.3393ZM102.904 10.0674C101.913 10.0674 101.073 10.8045 101.073 12.4157C101.073 14.027 101.913 14.8202 102.904 14.8202C103.895 14.8202 104.745 14.027 104.745 12.4157C104.745 10.8045 103.905 10.0674 102.904 10.0674Z" fill="#013841"/>
<path d="M90.9588 17.3461H93.9325C95.4204 17.3461 96.5333 17.7079 96.5333 19.2966C96.5333 19.9888 96.2406 20.4989 95.7232 20.8494C96.3508 21.1101 96.806 21.6202 96.806 22.5506C96.806 24.2517 95.7032 24.8742 94.0549 24.8742H90.9588V17.3461ZM92.569 20.2607H93.9847C94.5421 20.2607 94.865 20.0674 94.865 19.591C94.865 19.1146 94.5421 18.9326 93.9847 18.9326H92.569V20.2584V20.2607ZM92.569 23.2876H94.0769C94.7547 23.2876 95.1096 23.0494 95.1096 22.5169C95.1096 21.9843 94.7547 21.7573 94.0769 21.7573H92.569V23.2876Z" fill="#013841"/>
<path d="M99.1922 17.3461H97.584V24.8742H99.1922V17.3461Z" fill="#013841"/>
<path d="M92.569 31.9618H95.8355V33.5483H90.9588V26.0202H92.569V31.9618Z" fill="#013841"/>
<path d="M97.8648 26.0202H96.2566V33.5483H97.8648V26.0202Z" fill="#013841"/>
<path d="M100.826 26.0202H102.587L105.168 33.5483H103.417L102.992 32.1887H100.391L99.9663 33.5483H98.2558L100.826 26.0202ZM100.887 30.6135H102.495L101.695 28.0404L100.885 30.6135H100.887Z" fill="#013841"/>
<path d="M93.5796 39.4562H92.567V42.2225H90.9588V34.6944H93.4774C95.248 34.6944 96.5734 35.1596 96.5734 37.0517C96.5734 38.1865 96.026 38.8202 95.248 39.1483L96.9183 42.2202H95.0354L93.5776 39.4539L93.5796 39.4562ZM92.569 36.2809V37.8674H93.5295C94.2875 37.8674 94.875 37.7888 94.875 37.0742C94.875 36.3596 94.2875 36.2809 93.5295 36.2809H92.569Z" fill="#013841"/>
<path d="M99.078 34.6944H97.4698V42.2225H99.078V34.6944Z" fill="#013841"/>
<path d="M103.325 42.3596C101.232 42.3596 99.7938 40.8517 99.7938 38.436C99.7938 36.0202 101.232 34.5685 103.325 34.5685C105.418 34.5685 106.866 36.009 106.866 38.436C106.866 40.8629 105.418 42.3596 103.325 42.3596ZM103.325 36.0876C102.334 36.0876 101.494 36.8247 101.494 38.436C101.494 40.0472 102.334 40.8405 103.325 40.8405C104.316 40.8405 105.166 40.0472 105.166 38.436C105.166 36.8247 104.326 36.0876 103.325 36.0876Z" fill="#013841"/>
</g>
</svg>
